<?xml version="1.0" encoding="utf-8"?>
<!-- Generator: Adobe Illustrator 24.3.0, SVG Export Plug-In . SVG Version: 6.00 Build 0)  -->
<svg version="1.1" id="Layer_1" xmlns="http://www.w3.org/2000/svg" xmlns:xlink="http://www.w3.org/1999/xlink" x="0px" y="0px"
	 viewBox="0 0 826.1 658.4" style="enable-background:new 0 0 826.1 658.4;" xml:space="preserve">
<style type="text/css">
	.st0{filter:url(#Adobe_OpacityMaskFilter);}
	.st1{fill:url(#SVGID_2_);}
	.st2{mask:url(#SVGID_1_);}
	.st3{fill:url(#SVGID_3_);}
	.st4{fill:url(#SVGID_4_);}
	.st5{fill:url(#SVGID_5_);}
	.st6{fill:url(#SVGID_6_);}
	.st7{fill:url(#SVGID_7_);}
	.st8{fill:url(#SVGID_8_);}
	.st9{fill:url(#SVGID_9_);}
	.st10{fill:url(#SVGID_10_);}
	.st11{fill:url(#SVGID_11_);}
	.st12{fill:url(#SVGID_12_);}
	.st13{fill:url(#SVGID_13_);}
	.st14{fill:url(#SVGID_14_);}
	.st15{fill:url(#SVGID_15_);}
	.st16{fill:url(#SVGID_16_);}
	.st17{fill:url(#SVGID_17_);}
</style>
<defs>
	<filter id="Adobe_OpacityMaskFilter" filterUnits="userSpaceOnUse" x="53.1" y="43.5" width="744" height="543">
		<feColorMatrix  type="matrix" values="1 0 0 0 0  0 1 0 0 0  0 0 1 0 0  0 0 0 1 0"/>
	</filter>
</defs>
<mask maskUnits="userSpaceOnUse" x="53.1" y="43.5" width="744" height="543" id="SVGID_1_">
	<g class="st0">
		<linearGradient id="SVGID_2_" gradientUnits="userSpaceOnUse" x1="784.175" y1="-41.925" x2="41.925" y2="700.325">
			<stop  offset="0.3255" style="stop-color:#FFFFFF"/>
			<stop  offset="0.9203" style="stop-color:#000000"/>
		</linearGradient>
		<rect class="st1" width="826.1" height="658.4"/>
	</g>
</mask>
<g class="st2">
	
		<linearGradient id="SVGID_3_" gradientUnits="userSpaceOnUse" x1="182.088" y1="888.5856" x2="69.4984" y2="823.582" gradientTransform="matrix(1 0 0 -1 0 1129.8849)">
		<stop  offset="0.1055" style="stop-color:#2E828B"/>
		<stop  offset="1" style="stop-color:#000000"/>
	</linearGradient>
	<polygon class="st3" points="53.1,277.9 187.4,250.5 149.3,298.1 	"/>
	
		<linearGradient id="SVGID_4_" gradientUnits="userSpaceOnUse" x1="192.3737" y1="942.2715" x2="112.2263" y2="895.9983" gradientTransform="matrix(1 0 0 -1 0 1129.8849)">
		<stop  offset="0.2174" style="stop-color:#2E828B"/>
		<stop  offset="0.9624" style="stop-color:#000000"/>
	</linearGradient>
	<polygon class="st4" points="149.3,298.1 120.2,176.9 155.3,123.4 187.4,250.5 	"/>
	
		<linearGradient id="SVGID_5_" gradientUnits="userSpaceOnUse" x1="296.0178" y1="1000.9222" x2="143.397" y2="912.8065" gradientTransform="matrix(1 0 0 -1 0 1129.8849)">
		<stop  offset="0.3212" style="stop-color:#2E828B"/>
		<stop  offset="1" style="stop-color:#000000"/>
	</linearGradient>
	<polygon class="st5" points="120.2,176.9 256.3,238.7 331.2,189.9 155.3,123.4 	"/>
	
		<linearGradient id="SVGID_6_" gradientUnits="userSpaceOnUse" x1="349.5273" y1="1103.7473" x2="234.1783" y2="903.9569" gradientTransform="matrix(1 0 0 -1 0 1129.8849)">
		<stop  offset="0.3054" style="stop-color:#2E828B"/>
		<stop  offset="1" style="stop-color:#000000"/>
	</linearGradient>
	<path class="st6" d="M256.3,238.7c-8.7-46-17.4-91.9-26.1-137.9c49.8-19.1,99.6-38.2,149.4-57.3c-16.1,48.8-32.2,97.6-48.4,146.4
		L256.3,238.7z"/>
	
		<linearGradient id="SVGID_7_" gradientUnits="userSpaceOnUse" x1="441.7" y1="1036.1848" x2="332.4001" y2="926.8849" gradientTransform="matrix(1 0 0 -1 0 1129.8849)">
		<stop  offset="0.2962" style="stop-color:#2E828B"/>
		<stop  offset="1" style="stop-color:#000000"/>
	</linearGradient>
	<polygon class="st7" points="230.2,100.8 444.1,224.4 543.9,195.9 379.6,43.5 	"/>
	
		<linearGradient id="SVGID_8_" gradientUnits="userSpaceOnUse" x1="645.1755" y1="1039.09" x2="436.5163" y2="918.6202" gradientTransform="matrix(1 0 0 -1 0 1129.8849)">
		<stop  offset="8.900907e-03" style="stop-color:#2E828B"/>
		<stop  offset="1" style="stop-color:#000000"/>
	</linearGradient>
	<polygon class="st8" points="444.1,224.4 576,84.1 664,123.4 543.9,195.9 	"/>
	
		<linearGradient id="SVGID_9_" gradientUnits="userSpaceOnUse" x1="674.6501" y1="995.8348" x2="527.2999" y2="848.485" gradientTransform="matrix(1 0 0 -1 0 1129.8849)">
		<stop  offset="0.4072" style="stop-color:#2E828B"/>
		<stop  offset="1" style="stop-color:#000000"/>
	</linearGradient>
	<polygon class="st9" points="576,84.1 520.2,274.3 633.1,324.2 664,123.4 	"/>
	
		<linearGradient id="SVGID_10_" gradientUnits="userSpaceOnUse" x1="520.2" y1="848.4349" x2="797.1" y2="848.4349" gradientTransform="matrix(1 0 0 -1 0 1129.8849)">
		<stop  offset="0.1189" style="stop-color:#2E828B"/>
		<stop  offset="0.6439" style="stop-color:#000000"/>
	</linearGradient>
	<polygon class="st10" points="520.2,274.3 697.3,238.7 797.1,298.1 633.1,324.2 	"/>
	
		<linearGradient id="SVGID_11_" gradientUnits="userSpaceOnUse" x1="747.5854" y1="862.1525" x2="620.815" y2="642.5798" gradientTransform="matrix(1 0 0 -1 0 1129.8849)">
		<stop  offset="0.3009" style="stop-color:#2E828B"/>
		<stop  offset="0.8488" style="stop-color:#000000"/>
	</linearGradient>
	<path class="st11" d="M697.3,238.7c-31.7,79.3-63.5,158.6-95.2,237.8c28.7-13,57.3-26,86-39c36.3-46.5,72.7-92.9,109-139.4
		L697.3,238.7z"/>
	
		<linearGradient id="SVGID_12_" gradientUnits="userSpaceOnUse" x1="621.3501" y1="759.1349" x2="493.8499" y2="631.6349" gradientTransform="matrix(1 0 0 -1 0 1129.8849)">
		<stop  offset="0.1698" style="stop-color:#2E828B"/>
		<stop  offset="0.7766" style="stop-color:#000000"/>
	</linearGradient>
	<path class="st12" d="M688.1,437.5c-65.3-13.3-130.7-26.7-196-40c-21.7,11.3-43.3,22.7-65,34c58.3,15,116.7,30,175,45
		C630.8,463.5,659.4,450.5,688.1,437.5z"/>
	
		<linearGradient id="SVGID_13_" gradientUnits="userSpaceOnUse" x1="476.1" y1="732.3849" x2="476.1" y2="571.3849" gradientTransform="matrix(1 0 0 -1 0 1129.8849)">
		<stop  offset="0.1357" style="stop-color:#2E828B"/>
		<stop  offset="0.7285" style="stop-color:#000000"/>
	</linearGradient>
	<path class="st13" d="M492.1,397.5c11,34.3,22,68.7,33,103c-26.3,19.3-52.7,38.7-79,58c-6.3-42.3-12.7-84.7-19-127
		C448.8,420.2,470.4,408.8,492.1,397.5z"/>
	
		<linearGradient id="SVGID_14_" gradientUnits="userSpaceOnUse" x1="482.0233" y1="703.9959" x2="340.0685" y2="622.0383" gradientTransform="matrix(1 0 0 -1 0 1129.8849)">
		<stop  offset="0.264" style="stop-color:#2E828B"/>
		<stop  offset="0.943" style="stop-color:#000000"/>
	</linearGradient>
	<path class="st14" d="M525.1,500.5c-61.6-34.8-123.3-69.6-184.9-104.5c-15.3,10.8-30.6,21.6-46,32.4
		c50.6,43.3,101.3,86.7,151.9,130C472.4,539.2,498.8,519.8,525.1,500.5z"/>
	
		<linearGradient id="SVGID_15_" gradientUnits="userSpaceOnUse" x1="293.15" y1="733.8849" x2="293.15" y2="543.3849" gradientTransform="matrix(1 0 0 -1 0 1129.8849)">
		<stop  offset="0" style="stop-color:#2E828B"/>
		<stop  offset="0.7414" style="stop-color:#000000"/>
	</linearGradient>
	<path class="st15" d="M340.2,396c-6.4,52.2-12.7,104.3-19.1,156.5c-25,11.3-50,22.7-75,34c16-52.7,32.1-105.3,48.1-158
		C309.5,417.7,324.9,406.9,340.2,396z"/>
	
		<linearGradient id="SVGID_16_" gradientUnits="userSpaceOnUse" x1="320.1" y1="655.3849" x2="105.1" y2="655.3849" gradientTransform="matrix(1 0 0 -1 0 1129.8849)">
		<stop  offset="0.1514" style="stop-color:#2E828B"/>
		<stop  offset="0.901" style="stop-color:#000000"/>
	</linearGradient>
	<path class="st16" d="M320.1,552.4c-44-63.3-88-126.6-132-189.9c-27.7,21.7-55.3,43.3-83,65c47,53,94,106,141,159
		C270.8,575.1,295.4,563.8,320.1,552.4z"/>
	
		<linearGradient id="SVGID_17_" gradientUnits="userSpaceOnUse" x1="187.4" y1="665.8849" x2="55.3" y2="665.8849" gradientTransform="matrix(1 0 0 -1 0 1129.8849)">
		<stop  offset="0.1211" style="stop-color:#2E828B"/>
		<stop  offset="0.931" style="stop-color:#000000"/>
	</linearGradient>
	<path class="st17" d="M187.4,362.5c-6.1,59.9-12.2,119.7-18.4,179.6c-37.9,7.8-75.8,15.6-113.7,23.4c1-2.9,16.5-45.7,17.5-48.6
		c16.1-44.7,31.3-86.9,32.2-89.4C132.5,405.8,159.9,384.2,187.4,362.5z"/>
</g>
</svg>
