<?xml version="1.0" encoding="utf-8"?>
<!-- Generator: Adobe Illustrator 24.3.0, SVG Export Plug-In . SVG Version: 6.00 Build 0)  -->
<svg version="1.1" id="Layer_1" xmlns="http://www.w3.org/2000/svg" xmlns:xlink="http://www.w3.org/1999/xlink" x="0px" y="0px"
	 viewBox="0 0 333.6 352.9" style="enable-background:new 0 0 333.6 352.9;" xml:space="preserve">
<style type="text/css">
	.st0{display:none;fill-rule:evenodd;clip-rule:evenodd;fill:url(#SVGID_1_);}
	.st1{fill-rule:evenodd;clip-rule:evenodd;fill:#F24B04;}
	.st2{fill-rule:evenodd;clip-rule:evenodd;fill:url(#SVGID_2_);}
	.st3{fill-rule:evenodd;clip-rule:evenodd;fill:url(#SVGID_3_);}
	.st4{fill-rule:evenodd;clip-rule:evenodd;fill:url(#SVGID_4_);}
	.st5{fill-rule:evenodd;clip-rule:evenodd;fill:url(#SVGID_5_);}
	.st6{fill-rule:evenodd;clip-rule:evenodd;fill:#FFFFFF;}
	.st7{fill-rule:evenodd;clip-rule:evenodd;fill:#59362F;}
	.st8{fill-rule:evenodd;clip-rule:evenodd;fill:#1D1716;}
	.st9{fill-rule:evenodd;clip-rule:evenodd;fill:#5A4F3F;}
	.st10{fill-rule:evenodd;clip-rule:evenodd;fill:#D97C27;}
	.st11{fill-rule:evenodd;clip-rule:evenodd;fill:url(#SVGID_6_);}
	.st12{fill-rule:evenodd;clip-rule:evenodd;fill:url(#SVGID_7_);}
	.st13{fill-rule:evenodd;clip-rule:evenodd;fill:#322923;}
	.st14{fill-rule:evenodd;clip-rule:evenodd;fill:#5E2F11;}
	.st15{fill-rule:evenodd;clip-rule:evenodd;fill:#0D0D0D;}
	.st16{fill-rule:evenodd;clip-rule:evenodd;fill:#267373;}
	.st17{fill-rule:evenodd;clip-rule:evenodd;fill:#F7A56F;}
	.st18{fill-rule:evenodd;clip-rule:evenodd;fill:#E58C43;}
	.st19{fill-rule:evenodd;clip-rule:evenodd;fill:#B84B04;}
	.st20{fill-rule:evenodd;clip-rule:evenodd;fill:#9C2727;}
	.st21{fill-rule:evenodd;clip-rule:evenodd;fill:#D03F2F;}
	.st22{fill-rule:evenodd;clip-rule:evenodd;fill:url(#SVGID_8_);}
	.st23{fill-rule:evenodd;clip-rule:evenodd;fill:#C53131;}
	.st24{fill-rule:evenodd;clip-rule:evenodd;fill:#E38A40;}
</style>
<radialGradient id="SVGID_1_" cx="-362.7055" cy="295.165" r="231.3994" gradientTransform="matrix(1.146 0 0 1.146 576.1024 -160.3611)" gradientUnits="userSpaceOnUse">
	<stop  offset="0.6745" style="stop-color:#D7ECF0"/>
	<stop  offset="1" style="stop-color:#B6DAE2"/>
</radialGradient>
<rect x="-15.1" y="-8.6" class="st0" width="350" height="373"/>
<path class="st1" d="M154.9,236.8c-30.3,0-56.1-10.7-77.6-32.2c-21.4-21.4-32.1-47.2-32.1-77.5c0-30.3,10.7-56.1,32.1-77.6
	c21.4-21.4,47.3-32.1,77.6-32.1s56.1,10.7,77.5,32.1c21.4,21.4,32.2,47.3,32.2,77.6c0,30.3-10.7,56.1-32.2,77.5
	C211,226.1,185.2,236.8,154.9,236.8z"/>
<radialGradient id="SVGID_2_" cx="-195.794" cy="61170.9297" r="46.1847" gradientTransform="matrix(0.7966 0 0 0.3983 370.2771 -24036.0977)" gradientUnits="userSpaceOnUse">
	<stop  offset="0" style="stop-color:#267373"/>
	<stop  offset="1" style="stop-color:#1D1C26;stop-opacity:0.1"/>
</radialGradient>
<path class="st2" d="M188.6,324.9c7.1-0.9,15.7-1.3,25.7-1.3c10,0,18.6,0.4,25.7,1.3c7.1,0.9,10.6,2.1,10.6,3.4
	c0,1.3-3.5,2.4-10.6,3.3c-7.1,0.9-15.7,1.4-25.7,1.4c-10.1,0-18.7-0.5-25.7-1.4c-7.1-0.9-10.6-2-10.6-3.3
	C177.9,327,181.5,325.9,188.6,324.9z"/>
<radialGradient id="SVGID_3_" cx="254.3662" cy="239.1048" r="72.5946" gradientTransform="matrix(1.1164 0 0 1.1164 -129.0103 -154.0137)" gradientUnits="userSpaceOnUse">
	<stop  offset="0.5725" style="stop-color:#FCBA03"/>
	<stop  offset="1" style="stop-color:#F24B04"/>
</radialGradient>
<path class="st3" d="M211.2,169.2c-15.5,15.5-34.3,23.3-56.3,23.3c-22,0-40.7-7.8-56.3-23.3c-15.5-15.5-23.3-34.3-23.3-56.3
	c0-22,7.8-40.7,23.3-56.3C114.2,41.1,133,33.3,155,33.3c22,0,40.7,7.8,56.3,23.3c15.5,15.5,23.3,34.3,23.3,56.3
	C234.5,134.9,226.8,153.6,211.2,169.2z"/>
<radialGradient id="SVGID_4_" cx="154.6279" cy="169.4996" r="33.4084" gradientUnits="userSpaceOnUse">
	<stop  offset="0" style="stop-color:#937D75"/>
	<stop  offset="1" style="stop-color:#26211E"/>
</radialGradient>
<path class="st4" d="M179,179.7c2.2,1.7,2.1,4.1-0.3,7.2c2.2,1.7,2.1,4-0.3,7l-3.5,8.5c-1.7,0.6-3.4,1.1-5,1.5
	c-2.5,4-6.3,6.5-11.3,7.3c-1.6,0.3-3.3,0.4-5.2,0.4c-6.3-0.1-10.9-2.7-13.9-7.7c-2-0.5-4-1.1-6.1-1.8l-2.9-8.2
	c-2.3-3.3-2.3-5.6-0.1-7c-2.2-3.1-2.2-5.4,0-7.1c-3.2-2.8-3.2-5.2,0-7.3l0.1-6.8l48.7,0.8l-0.2,6C181.2,174.9,181.1,177.3,179,179.7
	z"/>
<radialGradient id="SVGID_5_" cx="169.2466" cy="192.3472" r="52.6915" gradientTransform="matrix(0.9251 0 0 0.9251 -0.3323 -62.1986)" gradientUnits="userSpaceOnUse">
	<stop  offset="0.7137" style="stop-color:#FFFFFF"/>
	<stop  offset="1" style="stop-color:#F8E2E2"/>
</radialGradient>
<path class="st5" d="M203,113.5c-0.2,13.3-5,24.5-14.5,33.6c-0.4,0.4-0.9,0.8-1.4,1.1l-2,17.4c0,0.1,0,0.3,0,0.5
	c0,1.7-2.1,3.2-6.4,4.6c-0.8,0.2-1.8,0.5-2.8,0.8c-6,1.3-13.2,1.9-21.7,1.8c-8.4-0.2-15.6-1.1-21.7-2.7c-0.3-0.1-0.7-0.3-1.1-0.5
	c-4.9-1.4-7.5-3.1-7.8-5v-0.2l-1.6-17.8c-0.3-0.4-0.6-0.8-1-1c-9.3-9.6-13.8-21-13.5-34.3c0.2-13.1,5-24.2,14.5-33.3
	c9.6-9.3,21-13.8,34.2-13.6c13.1,0.2,24.2,5.1,33.3,14.7C198.7,89,203.2,100.3,203,113.5z"/>
<path class="st6" d="M130.2,165.2c0-1.3,2.4-2.4,7.1-3.3c4.7-0.8,10.4-1.2,17-1.1c6.6,0.1,12.3,0.7,17,1.6c4.7,1,7,2.2,7,3.5
	c0,1.3-2.4,2.4-7.1,3.2c-4.7,0.9-10.4,1.3-17,1.1c-6.6-0.1-12.3-0.7-17-1.7C132.5,167.7,130.1,166.5,130.2,165.2z"/>
<path class="st7" d="M171.3,122.2l-0.2,0c-0.8,0.1-1.7,1.1-2.6,3c0,0-0.1,0-0.1,0.1c-1,2-1.4,3.7-1.5,5.4c0,0.1,0,0.3,0,0.5
	c0.5-0.4,1.1-0.8,1.6-1.3l-0.1,0c1.7-1.7,2.7-3.8,2.8-6.1L171.3,122.2z M164.4,117.1c-1.3,0-2.3,1.2-2.9,3.6c-0.6,2-0.9,4.4-1,7.3
	c0,0.5,0,0.9,0,1.3c1-1,1.9-2.3,2.7-4c0,0,0-0.1,0.1-0.1c1.2-2.7,1.8-4.9,1.8-6.6c0-0.7,0-1.2-0.1-1.4
	C164.9,117.2,164.7,117.1,164.4,117.1z M154.8,117.6c-0.6,0.4-1.1,1.2-1.5,2.3c-0.6,1.4-1,3-1,4.6c0,1.2,0.2,2.3,0.5,3.3
	c0.3-0.3,0.7-0.8,1.3-1.3l0-0.1c0.9-1,1.7-3.5,2.4-7.6l0-1.2L154.8,117.6z M139.8,128.5c-0.1,0.2-0.2,0.4-0.3,0.5l0,0.1
	c0,0.2-0.1,0.6-0.1,1.2c0,0.7,0,1.2,0.2,1.5c0.1-0.1,0.2-0.2,0.2-0.3l0.1-0.1c0.4-0.6,0.7-1.3,0.7-2.1c0-0.2,0-0.4,0-0.6
	c0-0.1-0.1-0.2-0.1-0.2L139.8,128.5z M148,120.8l-0.9,0c-0.8,0.4-1.5,1.1-1.9,2.2l0,0.1c-0.4,0.9-0.6,1.9-0.6,3
	c0,1.4,0.2,2.6,0.7,3.4c1.1-1.7,1.9-3.9,2.6-6.6L148,120.8z M148.8,120.2c0.1,0,0.1,0.1,0.1,0.3l0,2.5c0,0,0,0.1,0,0.1
	c-0.7,3-1.7,5.4-2.9,7.2c0.6,0.6,1.4,0.9,2.5,0.9c1.3,0,2.5-0.8,3.6-2.6c-0.5-1.1-0.7-2.4-0.7-4c0-1.7,0.4-3.3,1-4.9
	c0.6-1.4,1.3-2.3,2-2.7c0,0,0.1-0.1,0.1-0.1l2.3,0c0.1,0,0.2,0,0.3,0.1c0,0.1,0.1,0.2,0.1,0.3l0,1.8c-0.7,4.3-1.6,6.9-2.6,8
	c-0.8,0.8-1.2,1.3-1.5,1.5c0.2,0.4,0.5,0.8,0.8,1.1c0.8,0.8,1.7,1.3,2.6,1.3c1.2,0,2.3-0.3,3.3-1c-0.1-0.6-0.2-1.2-0.2-2
	c0-3,0.4-5.5,1-7.5c0.8-2.9,2.1-4.3,3.8-4.2c0.7,0,1.1,0.1,1.2,0.4l0,0.1l0.1,0c0.2,0.3,0.2,0.9,0.2,1.9c0,1.7-0.7,4.1-2,6.9l0,0.1
	c-1,2-2,3.6-3.3,4.6c0.2,0.6,0.5,1.1,1,1.4c0.4,0.3,1.1,0.4,2.1,0.4c0.8,0,1.6-0.2,2.4-0.6c0-0.3-0.1-0.6-0.1-0.9
	c0-1.7,0.6-3.6,1.6-5.7c1.1-2.4,2.3-3.5,3.4-3.5c0.5,0,0.7,0.1,0.8,0.2l0.1,0.1c0.1,0.1,0.1,0.2,0.1,0.3l0,1.6
	c-0.2,2.6-1.2,4.8-3.1,6.6c-0.7,0.7-1.3,1.2-2,1.6c0.3,1.6,1.3,2.3,3,2.2h0.1l0,0.1c0.1,0,0.2,0,0.2,0.1l0.1,0
	c0,0.1,0.1,0.2,0.1,0.3l0,0.1c0,0,0,0.1-0.1,0.1l0,0.1l-3,6.3c0,0,0,0.1,0,0.1l-0.1,0l0,0.1c0,0-0.1,0-0.1,0.1l-0.1,0
	c-0.1,0-0.2,0-0.2,0l-5-1.5l-0.3,16.5l1.6,1.3l-0.2,9.7l-4-0.1l0.2-10l1.6-1l0.3-17l0.1-0.1c0,0,0.1-0.1,0.1-0.1
	c0,0,0.1-0.1,0.2-0.1c0,0,0.1,0,0.1,0.1l5.2,1.5l2.6-5.5c-1.7-0.1-2.8-1-3.2-2.6c-0.9,0.3-1.7,0.5-2.6,0.5c-1.2,0-2-0.2-2.5-0.6
	c-0.5-0.4-0.9-0.9-1.2-1.5c-1.1,0.7-2.3,1.1-3.6,1.1c-1.1,0-2.2-0.5-3.2-1.6c-0.3-0.3-0.5-0.6-0.7-0.9c-1.3,1.8-2.7,2.6-4.1,2.6
	c-1.3,0-2.3-0.4-3.1-1.1c-1.3,1.7-2.6,2.5-4,2.4c-0.8,0-1.4-0.2-1.8-0.4c-0.2,0.2-0.4,0.3-0.7,0.5l3.4,6.5l5.5-2c0,0,0.1,0,0.2,0
	c0,0,0.1,0,0.2,0c0.1,0,0.1,0.1,0.1,0.2c0,0,0.1,0,0.1,0.1c0,0,0,0.1,0,0.1l0.4,17.7l1.1,0.8l-0.2,10.3l-3.9-0.1l0.2-9.8l1.4-1.5
	l0.3-16.8l-5.3,1.9c-0.1,0-0.2,0-0.3,0c0,0-0.1,0-0.1,0l-0.2-0.2l-3.6-7.1c-0.1-0.1-0.1-0.2-0.1-0.3c0-0.1,0.1-0.2,0.2-0.3
	c0.3-0.3,0.6-0.5,0.8-0.6c-0.3-0.5-0.4-1.2-0.4-2.1c0-0.7,0.1-1.1,0.2-1.4c0-0.2,0.2-0.5,0.5-0.9c0,0,0.1-0.1,0.2-0.1
	c0,0,0.1,0,0.1,0l1.2,0c0.1,0,0.2,0,0.3,0.1c0.1,0.1,0.1,0.2,0.1,0.3c0,0,0,0.1,0.1,0.3c0,0,0,0.1,0,0.1l0,0.1
	c0,0.2,0.1,0.5,0.1,0.7c0,1-0.3,1.9-1,2.7c0,0.1-0.1,0.2-0.3,0.3c0.3,0.1,0.7,0.1,1.2,0.1c1.2,0,2.4-0.7,3.5-2.2c-0.7-1-1-2.4-1-4.2
	c0-1.2,0.2-2.3,0.6-3.3c0.5-1.3,1.3-2.3,2.3-2.7l1.6,0C148.6,120,148.7,120.1,148.8,120.2z"/>
<path class="st8" d="M178.2,193.2c0.2-0.1,0.3,0,0.5,0c0.2,0.1,0.3,0.2,0.3,0.3c0.1,0.2,0.1,0.3,0,0.5c-0.1,0.2-0.2,0.3-0.3,0.4
	c-15.3,6.3-31.4,6.3-48.3,0c-0.2-0.1-0.3-0.2-0.4-0.4c-0.1-0.2-0.1-0.3,0-0.5c0.1-0.2,0.2-0.3,0.4-0.4c0.2-0.1,0.3-0.1,0.5,0
	C147.4,199.4,163.2,199.4,178.2,193.2z M178.5,186.3c0.2-0.1,0.3,0,0.5,0c0.2,0.1,0.3,0.2,0.4,0.4c0.1,0.2,0,0.3,0,0.5
	c-0.1,0.2-0.2,0.3-0.4,0.4c-15.4,6.1-31.6,6.1-48.6-0.1c-0.2-0.1-0.3-0.2-0.4-0.4c-0.1-0.2-0.1-0.3,0-0.5c0.1-0.2,0.2-0.3,0.4-0.4
	c0.2-0.1,0.3-0.1,0.5,0C147.4,192.2,163.3,192.3,178.5,186.3z M178.9,171.9c0.2-0.1,0.3,0,0.5,0c0.2,0.1,0.3,0.2,0.4,0.4
	c0.1,0.2,0,0.3,0,0.5c-0.1,0.2-0.2,0.3-0.3,0.4c-15.5,6.1-31.9,6-49.1-0.1c-0.2-0.1-0.3-0.2-0.4-0.3c-0.1-0.2-0.1-0.3,0-0.5
	c0.1-0.2,0.2-0.3,0.3-0.4c0.2-0.1,0.3-0.1,0.5,0C147.6,177.8,163.7,177.8,178.9,171.9z M179.6,180c-0.1,0.2-0.2,0.3-0.4,0.4
	c-15.5,6.1-31.8,6.1-48.9,0c-0.2-0.1-0.3-0.2-0.4-0.3c-0.1-0.2-0.1-0.3,0-0.5c0.1-0.2,0.2-0.3,0.3-0.4c0.2-0.1,0.3-0.1,0.5,0
	c16.8,6,32.8,6,48,0c0.2-0.1,0.3,0,0.5,0c0.2,0.1,0.3,0.2,0.4,0.4C179.7,179.7,179.7,179.8,179.6,180z"/>
<path class="st1" d="M260.9,194.3c-4.5,0-8.3-1.6-11.5-4.8c-3.2-3.2-4.7-7-4.7-11.4c0-4.5,1.6-8.3,4.7-11.5c3.2-3.2,7-4.7,11.5-4.7
	c4.5,0,8.3,1.6,11.4,4.7c3.2,3.2,4.8,7,4.8,11.5c0,4.5-1.6,8.3-4.8,11.4C269.2,192.7,265.4,194.3,260.9,194.3z"/>
<path class="st1" d="M267.6,216.8c-2.3,0-4.2-0.8-5.8-2.4c-1.6-1.6-2.4-3.5-2.4-5.8c0-2.3,0.8-4.2,2.4-5.8c1.6-1.6,3.5-2.4,5.8-2.4
	c2.3,0,4.2,0.8,5.8,2.4c1.6,1.6,2.4,3.5,2.4,5.8c0,2.3-0.8,4.2-2.4,5.8C271.8,216,269.9,216.8,267.6,216.8z"/>
<path class="st1" d="M257.5,230.6c-1.1,0-2.1-0.4-2.9-1.2c-0.8-0.8-1.2-1.7-1.2-2.8c0-1.1,0.4-2.1,1.2-2.8c0.8-0.8,1.8-1.2,2.9-1.2
	c1.1,0,2.1,0.4,2.9,1.2c0.8,0.8,1.2,1.7,1.2,2.8c0,1.1-0.4,2.1-1.2,2.8C259.6,230.2,258.6,230.6,257.5,230.6z"/>
<path class="st1" d="M245.3,239.5c-0.7,0-1.3-0.3-1.9-0.8c-0.5-0.5-0.8-1.1-0.8-1.8c0-0.7,0.3-1.3,0.8-1.8c0.5-0.5,1.1-0.8,1.9-0.8
	c0.7,0,1.3,0.3,1.9,0.8c0.5,0.5,0.8,1.1,0.8,1.8c0,0.7-0.3,1.3-0.8,1.8C246.7,239.3,246,239.5,245.3,239.5z"/>
<g>
	<polygon class="st9" points="196.4,301 236.9,298.4 237,301 235.4,302.7 197.6,304.7 196.6,303.1 	"/>
	<path class="st10" d="M234.4,261.5l3.6-0.3l-1.3,4.3l-2,1.1L234.4,261.5z M197.6,267.8l-1.3-1l-2.2-5.4l3.6,0.2L197.6,267.8z"/>
	
		<radialGradient id="SVGID_6_" cx="-202.6225" cy="293.8355" r="30.059" gradientTransform="matrix(0.8787 0 0 0.8787 396.382 2.3919)" gradientUnits="userSpaceOnUse">
		<stop  offset="0.6275" style="stop-color:#F7A56F"/>
		<stop  offset="1" style="stop-color:#D97C27"/>
	</radialGradient>
	<polygon class="st11" points="234.8,266.5 235.7,279.8 217.4,287.6 197.1,282.5 197.6,267.8 197.8,261.6 198.3,246.7 233.3,246 
		234.4,261.5 	"/>
	
		<radialGradient id="SVGID_7_" cx="-200.833" cy="319.5797" r="25.2162" gradientTransform="matrix(0.8787 0 0 0.8787 396.382 2.3919)" gradientUnits="userSpaceOnUse">
		<stop  offset="0.7255" style="stop-color:#F24B04"/>
		<stop  offset="1" style="stop-color:#AE4B04"/>
	</radialGradient>
	<polygon class="st12" points="197.1,282.5 217.4,287.6 235.7,279.8 236.9,298.4 196.4,301 	"/>
	<path class="st9" d="M236.7,325.5l-0.2,0.6l-7.8-0.5l-2-0.7l4.8-12.6l0.9-12.4l2.5-1.2l1.7,12.6L236.7,325.5z M201.5,324.8
		l-7.5,0.9l-0.2-0.7l1.3-12.6l3.1-10.4l2.7-1l-2,11.9l4.8,11.6L201.5,324.8z"/>
	<path class="st13" d="M228.7,325.5l7.8,0.5l0.2-0.6l5.8,2l-0.3,2.1l-6.8,0.2l-2.8-2.5l-0.1,3.7l-4.1-0.6L228.7,325.5z M201.5,324.8
		l0.9,4.7l-4.1,0.8l-0.2-3.6l-2.6,2.7l-6.8,0.2l-0.5-2.1l5.7-2.4l0.2,0.7L201.5,324.8z"/>
	<polygon class="st14" points="212.2,250.4 201,247.2 198.2,257 196.7,248.9 191.9,245.2 197.6,246.2 194.2,233 205.7,239.7 
		232.7,238.7 232.7,241.6 234.9,241.6 235.3,260.8 233.1,265.3 231.6,265.3 231.2,258.4 233,255.7 231.4,254.6 233.3,251.2 
		231,251.8 231,246.7 215.9,249.6 216.3,252.9 214.2,250.8 213.4,253.6 	"/>
	<path class="st6" d="M216.3,263.8c0,1.6-0.5,2.9-1.4,4c-0.9,1.1-2.1,1.7-3.4,1.7s-2.4-0.6-3.3-1.7c-0.9-1.1-1.4-2.4-1.4-4
		c0-1.6,0.5-2.9,1.4-4c0.9-1.1,2-1.7,3.3-1.7s2.4,0.6,3.4,1.7C215.9,260.9,216.3,262.2,216.3,263.8z"/>
	<path class="st6" d="M223.9,259.9c0.9,1.1,1.4,2.4,1.4,4c0,1.6-0.5,2.9-1.4,4c-0.9,1.1-2.1,1.7-3.4,1.7c-1.3,0-2.4-0.6-3.4-1.7
		c-0.9-1.1-1.4-2.4-1.4-4c0-1.6,0.5-2.9,1.4-4c0.9-1.1,2.1-1.7,3.4-1.7C221.9,258.3,223,258.8,223.9,259.9z"/>
	<path class="st15" d="M212.1,258.6c0.3,0.3,0.4,0.7,0.4,1.1c0,0.4-0.1,0.8-0.4,1.1c-0.3,0.3-0.6,0.5-1,0.5c-0.4,0-0.7-0.2-1-0.5
		c-0.3-0.3-0.4-0.7-0.4-1.1c0-0.4,0.1-0.8,0.4-1.1c0.3-0.3,0.6-0.5,1-0.5C211.5,258.1,211.8,258.3,212.1,258.6z"/>
	<path class="st15" d="M220.4,258.6c0.3,0.3,0.4,0.7,0.4,1.2c0,0.4-0.1,0.8-0.4,1.1c-0.3,0.3-0.6,0.4-1,0.4c-0.4,0-0.7-0.1-1-0.4
		c-0.3-0.3-0.4-0.7-0.4-1.1c0-0.4,0.1-0.8,0.4-1.2c0.3-0.3,0.6-0.4,1-0.4C219.8,258.2,220.1,258.3,220.4,258.6z"/>
	<path class="st14" d="M207.2,250.8c2-1.2,4.2-0.9,6.6,0.8c0.1,0.1,0.2,0.2,0.3,0.4c0,0.2,0,0.4-0.1,0.6c-0.1,0.2-0.3,0.2-0.4,0.3
		c-0.2,0-0.4,0-0.6-0.1c-1.8-1.3-3.5-1.6-4.9-0.8c-1.6,0.9-3,3-4.2,6.3c-0.1,0.2-0.2,0.3-0.4,0.4c-0.2,0.1-0.4,0.1-0.6,0
		c-0.2-0.1-0.4-0.2-0.4-0.4c-0.1-0.2-0.1-0.4,0-0.6C203.8,254.1,205.4,251.8,207.2,250.8z M217,256c-0.1-0.2-0.1-0.4-0.1-0.5
		c0.1-0.2,0.2-0.4,0.4-0.5c2.5-1.4,4.7-1.3,6.7,0.5c1.9,1.6,2.9,3.9,3,6.7c0,0.2-0.1,0.4-0.2,0.6c-0.2,0.2-0.3,0.2-0.5,0.2
		c-0.2,0-0.4-0.1-0.6-0.2c-0.1-0.1-0.2-0.3-0.3-0.5c-0.1-2.4-1-4.3-2.5-5.7c-1.5-1.2-3.2-1.3-5-0.3c-0.2,0.1-0.4,0.1-0.6,0.1
		C217.3,256.3,217.2,256.2,217,256z"/>
	<polygon class="st16" points="219.3,290.8 218.6,291.4 221,303.6 216.4,307.7 212.2,303.7 216.4,291.4 215.6,290.5 217.5,288.1 	
		"/>
	<path class="st17" d="M190.8,265.3l-2.9,2.8c0.9-0.4,1.8-0.8,2.6-1.3c0.4-0.3,0.7-0.4,1.1-0.6c0,0,0.1,0,0.1,0
		c0.2,0,0.3,0.1,0.4,0.2c0.4,0.6,0.5,1.2,0.3,1.7l-3,1.6l3-1.1c0.2,0.1,0.3,0.1,0.3,0.1c0.5,0.9,0.9,1.8,1.2,2.8l-1.5,0.8l0.3-1.3
		l-1.1,0.9c0.2,0.2,0.4,0.5,0.7,0.9c0.1,0.2,0.2,0.3,0.3,0.4l0.7,1.2l-0.7,1c-0.1,0-0.2,0-0.2,0c0,0-0.1,0.1-0.2,0.1
		c-0.1,0.1-0.2,0.2-0.3,0.3l0.6,0.1l-0.1,3.8l-2.3,0l0.3-6.3l-4.6-5.3l-0.1-0.9l1.9-5l0.2-4l1.4-0.2l0.7,1.7l-0.6,3.2l-1.2,3.4
		l1.9-1.4C190.5,265,190.7,265.1,190.8,265.3z"/>
	<path class="st18" d="M186.2,268.2l4.6,5.3l-0.3,6.3l-1.7-0.1l0.3-4.2c-0.5-1-1-1.7-1.3-2.3c-0.7-1.6-1.2-2.9-1.4-4L186.2,268.2z
		 M192.7,275.5l0,0.6l-0.6-0.1c0.1-0.1,0.2-0.2,0.3-0.3C192.6,275.5,192.7,275.5,192.7,275.5z M194.1,271.5l0.2,0.7l-1.4,1
		c-0.1-0.1-0.2-0.3-0.3-0.4c-0.3-0.4-0.5-0.7-0.7-0.9l1.1-0.9l-0.3,1.3L194.1,271.5z M192.5,268.1v0.5l-3,1.1L192.5,268.1z
		 M190.8,265.3c0.1,0.1,0.1,0.1,0.2,0.2l0.6,0.7c-0.4,0.1-0.8,0.3-1.1,0.6c-0.8,0.5-1.7,0.9-2.6,1.3L190.8,265.3z"/>
	<path class="st10" d="M192.9,273.3l1.4-1l-0.2-0.7c-0.4-1-0.8-1.9-1.2-2.8c0,0-0.1,0-0.3-0.1v-0.5c0.1-0.5,0-1.1-0.3-1.7
		c-0.1-0.1-0.2-0.2-0.4-0.2c-0.1,0-0.1,0-0.1,0l-0.6-0.7c0-0.3,0-0.8,0.1-1.7s0.4-1.2,1-1c0.6,0.2,0.9,0.8,0.9,1.7
		c0,0.9,0,1.4,0.1,1.6c0,0.2,0.1,0.5,0.1,0.9c0,0.5,0.3,1,0.7,1.6c0.4,0.6,0.7,1.2,0.7,1.8c0.1,0.6,0.1,1.1,0.1,1.4
		c0,0.3-0.1,0.8-0.2,1.2c-0.1,0.5-0.3,0.9-0.6,1.4c-0.3,0.4-0.6,0.8-1.1,1l0.7-1L192.9,273.3z"/>
	<path class="st1" d="M189.6,297.7l-4.1-2.1l11.4-12.6c1.3-0.3,2.1,0.1,2.3,1.2L189.6,297.7z"/>
	<polygon class="st19" points="188.8,296.2 185.6,295.8 188.4,276.8 193.9,276.8 	"/>
	<polygon class="st20" points="188.8,296.2 193.9,276.8 194.7,276.8 190.4,296.4 	"/>
	<polygon class="st21" points="188.4,276.8 185.6,295.8 185.5,295.8 187.2,276.7 	"/>
	
		<radialGradient id="SVGID_8_" cx="98.1499" cy="307.8121" r="10.8599" gradientTransform="matrix(0.7504 0 0 0.7504 146.0938 48.5219)" gradientUnits="userSpaceOnUse">
		<stop  offset="0.7255" style="stop-color:#CC3333"/>
		<stop  offset="1" style="stop-color:#A42828"/>
	</radialGradient>
	<path class="st22" d="M212,277.1c4.7,0.5,9.2-0.4,13.7-2.8c-0.2,0.7-0.3,1.4-0.5,2.1c-0.4,1.2-0.8,2.3-1.3,3.1
		c-1.2,2.1-2.6,3.3-4.3,3.7c-1.7,0.4-3.4,0-5.2-1.2c-1.3-0.9-2.1-2.4-2.3-4.6C212,277.3,212,277.2,212,277.1z"/>
	<path class="st6" d="M225.6,274.3c-4.4,2.4-9,3.3-13.7,2.8c0-0.6,0-1.2,0-1.9c2.7-0.1,5.5-0.6,8.1-1.5c2.2-0.8,4.3-1.8,6.1-3.2
		C226.1,271.9,225.9,273.1,225.6,274.3z"/>
	<polygon class="st23" points="235.7,297 234.9,296.3 241.4,292.1 240.8,291.7 241.7,290.9 234.2,281.6 235.6,280.2 243.7,290.6 
		244,292.8 238.9,299.8 237.8,298.8 	"/>
	<polygon class="st24" points="235.7,297 237.8,298.8 235.6,302 233.8,299 	"/>
</g>
</svg>
