<?xml version="1.0" encoding="utf-8"?>
<!-- Generator: Adobe Illustrator 24.3.0, SVG Export Plug-In . SVG Version: 6.00 Build 0)  -->
<svg version="1.1" id="Layer_1" xmlns="http://www.w3.org/2000/svg" xmlns:xlink="http://www.w3.org/1999/xlink" x="0px" y="0px"
	 viewBox="0 0 16 16" style="enable-background:new 0 0 16 16;" xml:space="preserve">
<style type="text/css">
	.st0{fill:url(#SVGID_1_);}
	.st1{fill:url(#SVGID_2_);}
	.st2{fill:url(#SVGID_3_);}
	.st3{fill:url(#SVGID_4_);}
	.st4{fill:url(#SVGID_5_);}
	.st5{fill:url(#SVGID_6_);}
	.st6{fill:url(#SVGID_7_);}
	.st7{fill:url(#SVGID_8_);}
	.st8{fill:url(#SVGID_9_);}
	.st9{fill:url(#SVGID_10_);}
	.st10{fill:url(#SVGID_11_);}
	.st11{fill:url(#SVGID_12_);}
	.st12{fill:url(#SVGID_13_);}
	.st13{fill:url(#SVGID_14_);}
	.st14{fill:url(#SVGID_15_);}
</style>
<g>
	
		<linearGradient id="SVGID_1_" gradientUnits="userSpaceOnUse" x1="4.331" y1="-1108.4552" x2="1.9818" y2="-1107.0989" gradientTransform="matrix(0.864 -0.5036 0.5036 0.864 557.4813 967.9321)">
		<stop  offset="0.1055" style="stop-color:#2E828B"/>
		<stop  offset="1" style="stop-color:#000000"/>
	</linearGradient>
	<polygon class="st0" points="1.1,10.1 3.2,8.2 3,9.5 	"/>
	
		<linearGradient id="SVGID_2_" gradientUnits="userSpaceOnUse" x1="4.5457" y1="-1109.5754" x2="2.8733" y2="-1108.61" gradientTransform="matrix(0.864 -0.5036 0.5036 0.864 557.4813 967.9321)">
		<stop  offset="0.2174" style="stop-color:#2E828B"/>
		<stop  offset="0.9624" style="stop-color:#000000"/>
	</linearGradient>
	<polygon class="st1" points="3,9.5 1.2,7.6 1.3,6.3 3.2,8.2 	"/>
	
		<linearGradient id="SVGID_3_" gradientUnits="userSpaceOnUse" x1="6.7083" y1="-1110.7992" x2="3.5237" y2="-1108.9607" gradientTransform="matrix(0.864 -0.5036 0.5036 0.864 557.4813 967.9321)">
		<stop  offset="0.3212" style="stop-color:#2E828B"/>
		<stop  offset="1" style="stop-color:#000000"/>
	</linearGradient>
	<polygon class="st2" points="1.2,7.6 4.3,7.3 5.2,5.6 1.3,6.3 	"/>
	
		<linearGradient id="SVGID_4_" gradientUnits="userSpaceOnUse" x1="7.8248" y1="-1112.9447" x2="5.4179" y2="-1108.776" gradientTransform="matrix(0.864 -0.5036 0.5036 0.864 557.4813 967.9321)">
		<stop  offset="0.3054" style="stop-color:#2E828B"/>
		<stop  offset="1" style="stop-color:#000000"/>
	</linearGradient>
	<path class="st3" d="M4.3,7.3C3.7,6.5,3.1,5.8,2.4,5.1c0.7-0.9,1.4-1.7,2.1-2.6c0.2,1,0.4,2.1,0.7,3.1L4.3,7.3z"/>
	
		<linearGradient id="SVGID_5_" gradientUnits="userSpaceOnUse" x1="9.748" y1="-1111.535" x2="7.4674" y2="-1109.2544" gradientTransform="matrix(0.864 -0.5036 0.5036 0.864 557.4813 967.9321)">
		<stop  offset="0.2962" style="stop-color:#2E828B"/>
		<stop  offset="1" style="stop-color:#000000"/>
	</linearGradient>
	<polygon class="st4" points="2.4,5.1 7.6,5 9.1,3.5 4.5,2.5 	"/>
	
		<linearGradient id="SVGID_6_" gradientUnits="userSpaceOnUse" x1="13.9937" y1="-1111.5956" x2="9.6399" y2="-1109.0819" gradientTransform="matrix(0.864 -0.5036 0.5036 0.864 557.4813 967.9321)">
		<stop  offset="8.900907e-03" style="stop-color:#2E828B"/>
		<stop  offset="1" style="stop-color:#000000"/>
	</linearGradient>
	<polygon class="st5" points="7.6,5 8.5,1.1 10.5,0.9 9.1,3.5 	"/>
	
		<linearGradient id="SVGID_7_" gradientUnits="userSpaceOnUse" x1="14.6087" y1="-1110.6931" x2="11.5341" y2="-1107.6185" gradientTransform="matrix(0.864 -0.5036 0.5036 0.864 557.4813 967.9321)">
		<stop  offset="0.4072" style="stop-color:#2E828B"/>
		<stop  offset="1" style="stop-color:#000000"/>
	</linearGradient>
	<polygon class="st6" points="8.5,1.1 9.5,5.1 12,4.9 10.5,0.9 	"/>
	
		<linearGradient id="SVGID_8_" gradientUnits="userSpaceOnUse" x1="11.386" y1="-1107.6174" x2="17.1637" y2="-1107.6174" gradientTransform="matrix(0.864 -0.5036 0.5036 0.864 557.4813 967.9321)">
		<stop  offset="0.1189" style="stop-color:#2E828B"/>
		<stop  offset="0.6439" style="stop-color:#000000"/>
	</linearGradient>
	<polygon class="st7" points="9.5,5.1 12.3,2.6 14.7,2.7 12,4.9 	"/>
	
		<linearGradient id="SVGID_9_" gradientUnits="userSpaceOnUse" x1="16.1305" y1="-1107.9037" x2="13.4854" y2="-1103.3221" gradientTransform="matrix(0.864 -0.5036 0.5036 0.864 557.4813 967.9321)">
		<stop  offset="0.3009" style="stop-color:#2E828B"/>
		<stop  offset="0.8488" style="stop-color:#000000"/>
	</linearGradient>
	<path class="st8" d="M12.3,2.6c0.3,1.8,0.5,3.5,0.8,5.3c0.4-0.5,0.8-1.1,1.1-1.6c0.2-1.2,0.3-2.4,0.5-3.7L12.3,2.6z"/>
	
		<linearGradient id="SVGID_10_" gradientUnits="userSpaceOnUse" x1="13.4965" y1="-1105.7542" x2="10.8362" y2="-1103.0938" gradientTransform="matrix(0.864 -0.5036 0.5036 0.864 557.4813 967.9321)">
		<stop  offset="0.1698" style="stop-color:#2E828B"/>
		<stop  offset="0.7766" style="stop-color:#000000"/>
	</linearGradient>
	<path class="st9" d="M14.2,6.3c-1.3,0.4-2.6,0.9-4,1.3C10,8.1,9.7,8.5,9.4,9c1.2-0.3,2.4-0.7,3.6-1C13.5,7.4,13.8,6.9,14.2,6.3z"/>
	
		<linearGradient id="SVGID_11_" gradientUnits="userSpaceOnUse" x1="10.4658" y1="-1105.196" x2="10.4658" y2="-1101.8367" gradientTransform="matrix(0.864 -0.5036 0.5036 0.864 557.4813 967.9321)">
		<stop  offset="0.1357" style="stop-color:#2E828B"/>
		<stop  offset="0.7285" style="stop-color:#000000"/>
	</linearGradient>
	<path class="st10" d="M10.3,7.7c0.6,0.5,1.1,1,1.7,1.5c-0.3,0.6-0.5,1.3-0.8,1.9C10.6,10.3,10,9.6,9.4,9C9.7,8.5,10,8.1,10.3,7.7z"
		/>
	
		<linearGradient id="SVGID_12_" gradientUnits="userSpaceOnUse" x1="10.5894" y1="-1104.6036" x2="7.6274" y2="-1102.8936" gradientTransform="matrix(0.864 -0.5036 0.5036 0.864 557.4813 967.9321)">
		<stop  offset="0.264" style="stop-color:#2E828B"/>
		<stop  offset="0.943" style="stop-color:#000000"/>
	</linearGradient>
	<path class="st11" d="M11.9,9.2c-1.5,0-3,0-4.4,0.1C7.3,9.6,7.2,9.9,7,10.3c1.4,0.2,2.7,0.5,4.1,0.7C11.4,10.4,11.7,9.8,11.9,9.2z"
		/>
	
		<linearGradient id="SVGID_13_" gradientUnits="userSpaceOnUse" x1="6.6484" y1="-1105.2273" x2="6.6484" y2="-1101.2524" gradientTransform="matrix(0.864 -0.5036 0.5036 0.864 557.4813 967.9321)">
		<stop  offset="0" style="stop-color:#2E828B"/>
		<stop  offset="0.7414" style="stop-color:#000000"/>
	</linearGradient>
	<path class="st12" d="M7.5,9.2c0.4,1,0.9,2,1.3,3c-0.3,0.5-0.7,0.9-1,1.4c-0.3-1.1-0.5-2.2-0.8-3.4C7.2,9.9,7.3,9.6,7.5,9.2z"/>
	
		<linearGradient id="SVGID_14_" gradientUnits="userSpaceOnUse" x1="7.2108" y1="-1103.5894" x2="2.7246" y2="-1103.5894" gradientTransform="matrix(0.864 -0.5036 0.5036 0.864 557.4813 967.9321)">
		<stop  offset="0.1514" style="stop-color:#2E828B"/>
		<stop  offset="0.901" style="stop-color:#000000"/>
	</linearGradient>
	<path class="st13" d="M8.8,12.3c-1.5-0.7-2.9-1.4-4.4-2c-0.3,0.7-0.5,1.4-0.8,2c1.4,0.5,2.8,0.9,4.2,1.4
		C8.1,13.2,8.5,12.7,8.8,12.3z"/>
	
		<linearGradient id="SVGID_15_" gradientUnits="userSpaceOnUse" x1="4.4419" y1="-1103.8085" x2="1.6855" y2="-1103.8085" gradientTransform="matrix(0.864 -0.5036 0.5036 0.864 557.4813 967.9321)">
		<stop  offset="0.1211" style="stop-color:#2E828B"/>
		<stop  offset="0.931" style="stop-color:#000000"/>
	</linearGradient>
	<path class="st14" d="M4.4,10.2c0.5,1.1,1,2.3,1.6,3.4c-0.6,0.5-1.2,1.1-1.8,1.6c0-0.1-0.2-1-0.2-1.1c-0.2-1-0.3-1.9-0.4-1.9
		C3.9,11.6,4.1,10.9,4.4,10.2z"/>
</g>
</svg>
